<?xml version="1.0" encoding="UTF-8"?>
<!DOCTYPE svg PUBLIC "-//W3C//DTD SVG 1.1//EN" "http://www.w3.org/Graphics/SVG/1.1/DTD/svg11.dtd">
<!-- Creator: CorelDRAW X7 -->
<svg xmlns="http://www.w3.org/2000/svg" xml:space="preserve" width="4.79134in" height="2.67205in" version="1.1" style="shape-rendering:geometricPrecision; text-rendering:geometricPrecision; image-rendering:optimizeQuality; fill-rule:evenodd; clip-rule:evenodd"
viewBox="0 0 4791 2672"
 xmlns:xlink="http://www.w3.org/1999/xlink">
 <defs>
  <style type="text/css">
   <![CDATA[
    .fil0 {fill:#C4963C}
    .fil2 {fill:#C4963C}
    .fil1 {fill:#36487D}
    .fil3 {fill:#36487D}
   ]]>
  </style>
 </defs>
 <g id="Layer_x0020_1">
  <metadata id="CorelCorpID_0Corel-Layer"/>
  <g id="_754480576">
   <path class="fil0" d="M340 1302l0 -357 319 0c30,0 59,2 88,7 28,5 53,14 74,27 22,13 39,31 52,53 13,23 20,53 20,88 0,65 -20,111 -59,140 -39,28 -89,42 -149,42l-345 0zm-340 -619l0 1530 750 0c69,0 137,-9 202,-26 66,-17 125,-43 176,-79 51,-36 92,-82 122,-138 31,-57 46,-123 46,-201 0,-95 -24,-177 -71,-245 -46,-68 -118,-115 -213,-142 69,-33 122,-75 157,-127 36,-51 53,-115 53,-193 0,-71 -12,-131 -36,-180 -23,-48 -57,-87 -100,-116 -44,-30 -96,-51 -156,-63 -61,-13 -128,-20 -202,-20l-728 0zm340 1269l0 -420 371 0c73,0 133,16 178,50 44,34 67,90 67,168 0,40 -7,73 -21,99 -14,25 -32,46 -55,61 -23,15 -50,25 -80,32 -31,6 -62,10 -96,10l-364 0zm1274 -1269l0 1530 318 0 0 -1073 5 0 379 1073 262 0 380 -1084 4 0 0 1084 318 0 0 -1530 -479 0 -342 1052 -4 0 -362 -1052 -479 0zm2119 373l0 1157 340 0 0 -1157 -340 0z"/>
   <path class="fil1" d="M4073 1084l0 -61c-29,-172 -154,-290 -340,-340l0 508c111,-33 225,-68 340,-107z"/>
   <path class="fil1" d="M2864 1395l94 -266 4 0 0 248c103,-20 209,-43 318,-68l0 -626 -479 0 -248 763c99,-14 203,-31 311,-51z"/>
   <path class="fil1" d="M1932 1513l0 -373 5 0 128 363c92,-8 192,-18 299,-32l-271 -788 -479 0 0 846c83,-2 190,-7 318,-16z"/>
   <path class="fil1" d="M1229 1529c-1,-1 -2,-3 -4,-5 -46,-68 -118,-115 -213,-142 69,-33 122,-75 157,-127 36,-51 53,-115 53,-193 0,-71 -12,-131 -36,-180 -23,-48 -57,-87 -100,-116 -44,-30 -96,-51 -156,-63 -61,-13 -128,-20 -202,-20l-728 0 0 846 1229 0zm-889 -227l0 -357 319 0c30,0 59,2 88,7 28,5 53,14 74,27 22,13 39,31 52,53 13,23 20,53 20,88 0,65 -20,111 -59,140 -39,28 -89,42 -149,42l-345 0z"/>
   <path class="fil2" d="M3826 323c72,11 420,121 483,335 62,-214 410,-324 482,-335 0,-6 -128,-22 -279,-85 -150,-62 -203,-238 -203,-238 0,0 -54,176 -204,238 -151,63 -279,79 -279,85z"/>
   <path class="fil3" d="M48 2536l0 -51 46 0c4,0 8,0 12,1 4,0 8,2 11,4 3,1 5,4 7,7 2,4 3,8 3,13 0,9 -3,16 -8,20 -6,4 -13,6 -22,6l-49 0zm-48 -89l0 220 107 0c9,0 19,-1 28,-4 10,-2 18,-6 25,-11 8,-5 13,-12 18,-20 4,-8 6,-18 6,-29 0,-13 -3,-25 -10,-35 -6,-10 -17,-17 -30,-20 10,-5 17,-11 22,-19 5,-7 8,-16 8,-27 0,-11 -2,-19 -5,-26 -4,-7 -8,-13 -15,-17 -6,-4 -13,-7 -22,-9 -8,-2 -18,-3 -28,-3l-104 0zm48 183l0 -61 53 0c11,0 19,3 25,7 7,5 10,13 10,25 0,5 -1,10 -3,14 -2,3 -5,6 -8,8 -3,3 -7,4 -11,5 -5,1 -9,2 -14,2l-52 0zm356 -46l0 -137 -49 0 0 137c0,16 -3,28 -10,36 -6,8 -18,12 -35,12 -10,0 -18,-2 -24,-5 -6,-2 -10,-6 -14,-10 -3,-5 -5,-10 -6,-16 -1,-5 -2,-11 -2,-17l0 -137 -48 0 0 137c0,30 8,52 25,66 16,15 39,22 69,22 29,0 52,-7 69,-22 16,-14 25,-36 25,-66zm41 -137l0 220 46 0 0 -154 0 0 54 154 37 0 54 -156 1 0 0 156 45 0 0 -220 -68 0 -49 151 0 0 -52 -151 -68 0zm280 0l0 220 48 0 0 -220 -48 0zm176 0l0 220 46 0 0 -154 0 0 54 154 38 0 53 -156 1 0 0 156 45 0 0 -220 -68 0 -48 151 -1 0 -52 -151 -68 0zm280 0l0 220 167 0 0 -41 -119 0 0 -54 107 0 0 -37 -107 0 0 -47 116 0 0 -41 -164 0zm200 0l0 220 45 0 0 -147 0 0 92 147 48 0 0 -220 -45 0 0 148 -1 0 -91 -148 -48 0zm283 135l29 -81 1 0 27 81 -57 0zm5 -135l-83 220 48 0 18 -49 82 0 17 49 50 0 -82 -220 -50 0zm199 100l0 -62 53 0c11,0 20,2 25,7 6,5 9,12 9,23 0,11 -3,19 -9,24 -5,5 -14,8 -25,8l-53 0zm-48 -100l0 220 48 0 0 -86 49 0c12,0 21,3 26,8 5,5 9,14 10,25 2,9 3,18 3,28 1,10 2,18 5,25l49 0c-3,-3 -4,-7 -6,-11 -1,-5 -2,-9 -2,-14 -1,-5 -1,-10 -1,-15 0,-4 -1,-8 -1,-12 0,-6 -1,-11 -2,-17 -1,-5 -3,-10 -5,-15 -3,-4 -6,-9 -10,-12 -4,-3 -9,-6 -15,-7l0 -1c13,-5 21,-12 27,-22 5,-9 8,-20 8,-33 0,-9 -1,-17 -4,-24 -3,-7 -8,-14 -13,-19 -6,-6 -13,-10 -21,-13 -8,-3 -16,-5 -26,-5l-119 0zm278 135l29 -81 0 0 28 81 -57 0zm5 -135l-84 220 49 0 17 -49 83 0 16 49 50 0 -82 -220 -49 0zm236 0l0 220 49 0 0 -220 -49 0zm91 0l0 220 45 0 0 -147 1 0 92 147 48 0 0 -220 -45 0 0 148 -1 0 -92 -148 -48 0zm277 41l0 179 49 0 0 -179 66 0 0 -41 -181 0 0 41 66 0zm140 -41l0 220 167 0 0 -41 -119 0 0 -54 107 0 0 -37 -107 0 0 -47 116 0 0 -41 -164 0zm248 100l0 -62 53 0c11,0 19,2 25,7 5,5 8,12 8,23 0,11 -3,19 -8,24 -6,5 -14,8 -25,8l-53 0zm-49 -100l0 220 49 0 0 -86 48 0c12,0 21,3 26,8 6,5 9,14 11,25 1,9 2,18 3,28 0,10 2,18 5,25l48 0c-2,-3 -4,-7 -5,-11 -1,-5 -2,-9 -3,-14 0,-5 0,-10 -1,-15 0,-4 0,-8 0,-12 -1,-6 -1,-11 -3,-17 -1,-5 -2,-10 -5,-15 -2,-4 -6,-9 -9,-12 -4,-3 -9,-6 -15,-7l0 -1c12,-5 21,-12 26,-22 6,-9 9,-20 9,-33 0,-9 -2,-17 -5,-24 -3,-7 -7,-14 -13,-19 -6,-6 -12,-10 -20,-13 -8,-3 -17,-5 -27,-5l-119 0zm223 0l0 220 45 0 0 -147 1 0 91 147 49 0 0 -220 -45 0 0 148 -1 0 -92 -148 -48 0zm415 137l0 -137 -48 0 0 137c0,16 -4,28 -10,36 -7,8 -19,12 -36,12 -10,0 -18,-2 -23,-5 -6,-2 -11,-6 -14,-10 -3,-5 -6,-10 -7,-16 -1,-5 -1,-11 -1,-17l0 -137 -49 0 0 137c0,30 9,52 25,66 16,15 39,22 69,22 29,0 52,-7 69,-22 17,-14 25,-36 25,-66zm75 10l-47 0c0,14 2,25 7,35 5,10 12,18 21,25 9,6 19,11 30,14 12,3 23,4 35,4 15,0 29,-2 40,-5 11,-4 21,-9 29,-15 7,-6 13,-14 17,-22 4,-9 6,-18 6,-28 0,-13 -3,-23 -8,-31 -5,-7 -11,-14 -18,-19 -8,-4 -15,-8 -22,-10 -8,-2 -13,-4 -17,-4 -14,-4 -25,-7 -34,-9 -8,-2 -15,-4 -20,-7 -5,-2 -8,-4 -9,-7 -2,-3 -3,-6 -3,-11 0,-4 1,-8 3,-11 2,-3 5,-6 8,-8 3,-2 7,-4 11,-4 4,-1 7,-2 11,-2 6,0 12,1 17,2 5,1 9,3 13,5 4,3 7,6 10,10 2,5 3,10 4,17l47 0c0,-13 -3,-24 -8,-33 -4,-9 -11,-16 -19,-22 -8,-6 -18,-10 -28,-12 -11,-3 -22,-4 -34,-4 -9,0 -19,1 -29,4 -10,3 -19,7 -27,12 -7,6 -14,13 -19,21 -4,8 -7,18 -7,29 0,10 2,19 6,26 4,7 9,13 15,18 6,5 13,8 21,11 8,3 16,6 24,8 8,2 16,4 24,6 7,2 14,4 21,7 6,2 11,5 14,9 4,4 6,8 6,14 0,6 -1,10 -4,14 -3,4 -7,6 -11,9 -4,2 -9,3 -14,4 -5,0 -9,1 -14,1 -6,0 -12,-1 -18,-3 -6,-1 -11,-3 -16,-7 -4,-3 -8,-7 -10,-12 -3,-5 -4,-12 -4,-19zm222 -12l29 -81 0 0 28 81 -57 0zm5 -135l-83 220 48 0 18 -49 82 0 16 49 51 0 -83 -220 -49 0z"/>
  </g>
 </g>
</svg>
